<svg id="Group_251" data-name="Group 251" xmlns="http://www.w3.org/2000/svg" xmlns:xlink="http://www.w3.org/1999/xlink" width="103.987" height="50.494" viewBox="0 0 103.987 50.494">
  <defs>
    <clipPath id="clip-path">
      <path id="Path_1" data-name="Path 1" d="M81.781,50.714c-.509.736-.906,1.359-1.189,1.811,0,0-.34.4.17.4H85.63c.226,0,.4-.17.566-.4.057-.113.566-.849,1.189-1.868a45.913,45.913,0,0,1-5.6.057M67.969,49.355c0,1.642.509,3.963,4.246,3.963a7.977,7.977,0,0,0,5.548-2.774,91.525,91.525,0,0,1-9.793-1.3v.113m27.285.679c0,1.359.34,3.51,2.6,3.51,4.472,0,10.076-5.774,10.359-5.831.17-.057.226.057.226.226,0,.226-.623,2.491-7.189,10.586s-9.736,11.265-9.736,13.02a2.3,2.3,0,0,0,2.151,2.377c.679,0,3.566-.17,10.416-11.435,4.868-8.038,7.189-13.02,9.793-16.982h0c-4.755,2.094-10.642,3.453-18.624,4.529M24.495,68.941c0-2.321,7.925-8.378,8.887-8.378.226,0,.283.113.283.283,0,1.868-5.774,9.227-8.151,9.227a1.012,1.012,0,0,1-1.019-1.132m4.3-19.869c0,3.4,3.113,3.793,4.755,3.793,4.3,0,6.227-2.038,7.076-2.038s-.509,2.038-1.811,2.887C28.287,60.224,19.57,65.828,19.4,70.979v.34c.113,2.208,2.208,2.377,3.793,2.377,1.642,0,9.623-1.019,21.907-20.265a8.811,8.811,0,0,1,2.434-2.094c.906-.679,3.849-2.83,4.415-2.83s.566.226.509.509a10.413,10.413,0,0,0-.4,2.264,2.51,2.51,0,0,0,2.717,2.208c3.736,0,6.453-2.661,8.661-5.095-.736-.17-1.585-.34-2.491-.566a5.546,5.546,0,0,1-2.208,1.359c-.849,0-1.132-.453-1.132-.906a3.639,3.639,0,0,1,.226-1.245c-1.7-.453-3.566-.962-5.6-1.642a2.841,2.841,0,0,1-1.528.566c-.113,0-.226-.17.057-.566a3.354,3.354,0,0,0,.226-.34c-1.472-.453-3-1.019-4.585-1.585-3.113,2.887-6.68,5.774-8.661,5.774-.792,0-1.528-.509-1.528-1.811,0-.849,1.076-3.566,3.283-6.623-1.642-.679-3.283-1.415-4.981-2.208C30.608,42.676,28.8,46.412,28.8,49.072" transform="translate(-19.4 -38.6)"/>
    </clipPath>
    <radialGradient id="radial-gradient" cx="-26.078" cy="128.428" r="0.025" gradientUnits="objectBoundingBox">
      <stop offset="0" stop-color="#bf1f63"/>
      <stop offset="0.5" stop-color="#b41e5d"/>
      <stop offset="1" stop-color="#ad1e56"/>
    </radialGradient>
    <clipPath id="clip-path-2">
      <path id="Path_2" data-name="Path 2" d="M72.336,41.392c.962.226,1.755.4,2.491.566a23.058,23.058,0,0,1,3.4-3.34c-1.132-.057-2.208-.113-3.34-.226a10.559,10.559,0,0,1-2.547,3m18.171-3.17c-1.189,2.151-2.83,4.132-4.868,4.132a.909.909,0,0,1-1.019-.962,5.9,5.9,0,0,1,1.132-2.83c-1.868.113-3.736.113-5.548.057a26.74,26.74,0,0,0-.736,4.132,91.524,91.524,0,0,0,9.793,1.3,21.589,21.589,0,0,0,4.132-6.283,25.469,25.469,0,0,1-2.887.453M65.09,37.769a8.431,8.431,0,0,1-1.528,1.189c2.038.623,3.906,1.189,5.6,1.642a9.992,9.992,0,0,1,1.642-2.661c-1.7-.226-3.4-.509-5.038-.849a7.689,7.689,0,0,1-.679.679m-7.3-.736c1.585.566,3.113,1.076,4.585,1.585.283-.4.793-1.132,1.415-1.981-1.472-.34-3-.736-4.415-1.132-.509.509-1.076,1.019-1.585,1.528M45.9,32.165h0c1.7.793,3.34,1.528,4.981,2.208.283-.4.566-.792.906-1.189-1.755-.623-3.453-1.245-5.038-1.868l-.849.849m68.212,4.585c0-.906,3.057-3.906,4.132-3.906a.317.317,0,0,1,.34.283c0,1.189-3.057,4.019-4.076,4.019-.17-.057-.4-.17-.4-.4M124.131,34.2c-3.057,3.4-6.793,7.925-10.133,7.925a1.469,1.469,0,0,1-1.642-1.585,1.53,1.53,0,0,1,1.3-1.359c3.17-.962,8.095-5.095,8.095-7.925,0-.736-.34-1.528-1.3-1.528-1.359,0-5.151.623-9.906,6.4a2.472,2.472,0,0,1-1.528,1.076c-.453,0-.962-.849-.962-2.547v-.509a70.506,70.506,0,0,1-10.472,2.944,81.823,81.823,0,0,1-4.359,7.246c1.925.057,3.849.057,5.661,0,1.245-1.925,2.944-4.585,3.057-4.755a.623.623,0,0,1,.566-.34c.792,0-.17,1.981,2.661,1.981a9.025,9.025,0,0,0,1.811-.4c.226,0,.226.17.226.34a14.862,14.862,0,0,0-.453,2.038v.453c7.925-1.076,13.812-2.434,18.511-4.472a34.38,34.38,0,0,1,3.623-4.812c2.038-2.038,2.547-3.057,2.547-3.566a1.117,1.117,0,0,0-1.076-1.245c-.679.057-3.17,1.3-6.227,4.642M129.9,27.41c0,.849,1.3,1.415,1.7,1.415a4,4,0,0,0,2.83-3.283v-.226a1.415,1.415,0,0,0-1.245-1.415c-1.019.057-3.283,2.378-3.283,3.51" transform="translate(-45.9 -23.9)"/>
    </clipPath>
    <radialGradient id="radial-gradient-2" cx="-27.548" cy="226.005" r="0.044" gradientUnits="objectBoundingBox">
      <stop offset="0" stop-color="#5eb4e1"/>
      <stop offset="0.5" stop-color="#3394cc"/>
      <stop offset="1" stop-color="#0077b6"/>
    </radialGradient>
    <clipPath id="clip-path-3">
      <path id="Path_3" data-name="Path 3" d="M64,26.625c-.566.566-2.094,2.151-4.019,4.019,1.472.4,2.944.792,4.415,1.132,1.359-1.868,3.113-4.3,3.566-4.812.736-.849,1.132-1.3,1.132-1.585,0-.34-.453-.623-1.019-.623A6.676,6.676,0,0,0,64,26.625m18.907-8.095a1.651,1.651,0,0,1,1.811-1.755c5.038,0,7.585,7.246,7.585,7.755,0,.226-.113.34-.509.34-1.868,0-8.887-2.83-8.887-6.34m-4.189-1.189c0,2.547,1.528,6,7.812,8.151.17.057.34.057.34.226,0,.283-3,4.359-5.661,4.812-.283.057-.509-.226-.509-.509a11.262,11.262,0,0,0,.4-2.434c0-1.3-.4-3.113-2.83-3.113-2.321,0-5.038,1.132-11.831,7.755,1.642.34,3.34.623,5.038.849,2.094-2.6,5.321-5.151,6.17-5.151.509,0,.736.226.736.4.057.906-1.245,1.528-2.038,2.151-.962.679-1.245.906-1.132,1.472.057.34.509.4.566.962a1.476,1.476,0,0,1-.17.623c1.076.113,2.208.17,3.34.226A2.591,2.591,0,0,1,80.3,33.3c.4,0,.509.17.509.4v.113c1.811.057,3.679,0,5.548-.057A14.052,14.052,0,0,1,89.3,30.3c1.076-.679,1.642-1.3,1.642-1.7s-.793-.849-.849-1.245c-.113-.4.226-.679,1.019-.453,1.076.283,1.868.283,1.868,1.132a17.245,17.245,0,0,1-1.868,5.321c.962-.113,1.925-.226,2.887-.4a15.74,15.74,0,0,0,1.472-5.038c0-.226.057-.509.509-.509.4,0,1.585.113,2.094.17a1.474,1.474,0,0,1,1.3,1.585A8.96,8.96,0,0,1,98.3,32.229a78.081,78.081,0,0,0,10.472-2.944c.17-2.208,1.189-3.113,1.245-3.849v-.113c0-.453-.226-.623-.792-.623-1.3,0-3.906,3.227-4.415,3.227-.4,0-.849-1.472-1.245-2.038-.623-.849-1.472-1.076-3.963-1.076-1.245,0-1.925.113-3,.113-1.245,0-1.528-.057-1.755-.623S90.944,14,82.623,14c-1.925,0-3.906.792-3.906,3.34m-25.19,3.793A51.331,51.331,0,0,0,47.3,26.456h0c1.585.623,3.283,1.245,5.038,1.868A38,38,0,0,1,55.621,24.7c4.925-4.585,10.642-6.849,14.208-6.849a21.925,21.925,0,0,1,3.51.34c.17,0,.226,0,.34-.17s2.774-4.981,2.774-4.981c.057-.057,0-.113-.057-.17a5.615,5.615,0,0,0-1.472-.17c-3.963,0-12.623,2.038-21.4,8.434" transform="translate(-47.3 -12.7)"/>
    </clipPath>
    <radialGradient id="radial-gradient-3" cx="-39.179" cy="217.295" r="0.042" gradientUnits="objectBoundingBox">
      <stop offset="0" stop-color="#a3bc46"/>
      <stop offset="0.5" stop-color="#88b03f"/>
      <stop offset="1" stop-color="#6fa442"/>
    </radialGradient>
    <clipPath id="clip-path-4">
      <rect id="Rectangle_18" data-name="Rectangle 18" width="103.987" height="50.494"/>
    </clipPath>
    <clipPath id="clip-path-5">
      <path id="Path_6" data-name="Path 6" d="M142.17,51.053l-1.076,1.642c-.623.962-1.415,2.264-2.094,3.283h.566c.566-.849,1.189-1.868,1.925-3l1.019-1.642a.409.409,0,0,1,.34-.226c.057,0,.113,0,.17.34.17.623.453,1.642,2.491,1.642a3.527,3.527,0,0,0,1.472-.34c.113-.057.226-.057.283-.113v.113a2.547,2.547,0,0,1-.113.453,7.548,7.548,0,0,0-.34,1.585V55.3c.17,0,.34-.057.453-.057v-.4a7.115,7.115,0,0,1,.34-1.472,3.7,3.7,0,0,0,.113-.623c0-.509-.34-.566-.453-.566a2.545,2.545,0,0,0-.453.113,4.414,4.414,0,0,1-1.359.283c-1.7,0-1.868-.679-2.038-1.245-.113-.34-.17-.736-.623-.736a.886.886,0,0,0-.623.453" transform="translate(-139 -50.6)"/>
    </clipPath>
    <linearGradient id="linear-gradient" x1="-194.233" y1="396.903" x2="-194.17" y2="396.903" gradientUnits="objectBoundingBox">
      <stop offset="0" stop-color="#3b80bc"/>
      <stop offset="0.65" stop-color="#54a5d7"/>
      <stop offset="1" stop-color="#5eb4e1"/>
    </linearGradient>
    <clipPath id="clip-path-6">
      <path id="Path_8" data-name="Path 8" d="M119.774,49.2a18.656,18.656,0,0,1-1.7,2.434,3.99,3.99,0,0,1-2.83,1.472.7.7,0,0,1-.793-.679,6.08,6.08,0,0,1,1.189-2.83,1.926,1.926,0,0,0-.566.057A6.347,6.347,0,0,0,114,52.483a1.162,1.162,0,0,0,1.3,1.189,4.479,4.479,0,0,0,3.17-1.642A11.332,11.332,0,0,0,120.4,49.2h-.623" transform="translate(-114 -49.2)"/>
    </clipPath>
    <linearGradient id="linear-gradient-2" x1="-247.322" y1="334.773" x2="-247.235" y2="334.773" gradientUnits="objectBoundingBox">
      <stop offset="0" stop-color="#85c2e5"/>
      <stop offset="0.138" stop-color="#7cbde2"/>
      <stop offset="0.367" stop-color="#62aed9"/>
      <stop offset="0.659" stop-color="#3997ca"/>
      <stop offset="1" stop-color="#0077b6"/>
    </linearGradient>
    <clipPath id="clip-path-12">
      <path id="Path_14" data-name="Path 14" d="M172.3,36.9c0,2.774-4.925,6.793-7.925,7.7-.906.283-1.472.849-1.472,1.585h.453c0-.509.4-.906,1.132-1.132,3.057-.906,8.151-5.038,8.265-8.038V36.9H172.3Z" transform="translate(-162.9 -36.9)"/>
    </clipPath>
    <linearGradient id="linear-gradient-3" x1="-238.268" y1="524.69" x2="-238.178" y2="524.69" gradientUnits="objectBoundingBox">
      <stop offset="0" stop-color="#006ca5"/>
      <stop offset="1" stop-color="#00669e"/>
    </linearGradient>
    <clipPath id="clip-path-13">
      <path id="Path_16" data-name="Path 16" d="M157.8,43.551c-.509.623-1.019,1.019-1.359,1.019-.226,0-.736-.679-.736-2.321v-.623l-.509.17v.4c0,1.925.623,2.774,1.189,2.774.679,0,1.359-.736,1.7-1.189.623-.736,1.189-1.359,1.755-1.925l-.226-.453c-.509.623-1.132,1.359-1.811,2.151" transform="translate(-155.2 -41.4)"/>
    </clipPath>
    <linearGradient id="linear-gradient-4" x1="-633.402" y1="676.186" x2="-633.243" y2="676.186" gradientUnits="objectBoundingBox">
      <stop offset="0" stop-color="#5eb4e1"/>
      <stop offset="0.18" stop-color="#54aedd"/>
      <stop offset="0.483" stop-color="#3a9dd1"/>
      <stop offset="0.87" stop-color="#1081bd"/>
      <stop offset="1" stop-color="#0077b6"/>
    </linearGradient>
    <clipPath id="clip-path-14">
      <path id="Path_18" data-name="Path 18" d="M163.2,38.115l.226.453c3.962-4.019,7.019-4.359,7.982-4.359,1.019,0,1.076,1.076,1.076,1.3h.453c0-.906-.453-1.811-1.528-1.811-1.245.057-4.3.509-8.208,4.415" transform="translate(-163.2 -33.7)"/>
    </clipPath>
    <linearGradient id="linear-gradient-5" x1="-135.579" y1="1055.877" x2="-135.494" y2="1055.877" gradientUnits="objectBoundingBox">
      <stop offset="0" stop-color="#5eb4e1"/>
      <stop offset="0.194" stop-color="#52aad8"/>
      <stop offset="0.544" stop-color="#3290c2"/>
      <stop offset="1" stop-color="#00669e"/>
    </linearGradient>
    <clipPath id="clip-path-15">
      <path id="Path_20" data-name="Path 20" d="M166.509,43.432c0-.849,3-3.679,3.849-3.679a.2.2,0,0,1,.113.057c0,1.019-2.944,3.736-3.793,3.736-.113,0-.17-.057-.17-.113m-.509,0a.626.626,0,0,0,.623.623c1.132,0,4.3-2.887,4.3-4.246a.52.52,0,0,0-.566-.509c-1.132-.057-4.359,3.057-4.359,4.132" transform="translate(-166 -39.299)"/>
    </clipPath>
    <linearGradient id="linear-gradient-6" x1="-153.094" y1="154.554" x2="-153.001" y2="154.554" gradientUnits="objectBoundingBox">
      <stop offset="0" stop-color="#57a7d0"/>
      <stop offset="0.191" stop-color="#4da0cb"/>
      <stop offset="0.511" stop-color="#338fbe"/>
      <stop offset="0.919" stop-color="#0972aa"/>
      <stop offset="1" stop-color="#006ca5"/>
    </linearGradient>
    <clipPath id="clip-path-16">
      <path id="Path_22" data-name="Path 22" d="M194.309,27.279c0-.962,2.151-3.227,3.057-3.227.566,0,.962.679.962,1.245a3.725,3.725,0,0,1-2.6,3.17c-.34,0-1.415-.509-1.415-1.189m-.509,0c0,1.019,1.359,1.7,1.925,1.7a4.171,4.171,0,0,0,3.057-3.623A1.642,1.642,0,0,0,197.31,23.6c-1.132,0-3.51,2.434-3.51,3.679" transform="translate(-193.8 -23.6)"/>
    </clipPath>
    <linearGradient id="linear-gradient-7" x1="-241.266" y1="851.424" x2="-241.165" y2="851.424" gradientUnits="objectBoundingBox">
      <stop offset="0" stop-color="#5eb4e1"/>
      <stop offset="0.199" stop-color="#51a9d7"/>
      <stop offset="0.567" stop-color="#2f8bbc"/>
      <stop offset="1" stop-color="#006296"/>
    </linearGradient>
    <clipPath id="clip-path-22">
      <path id="Path_29" data-name="Path 29" d="M174.774,38.3l-.962,1.076c-2.83,3.17-6.114,6.793-9,6.793a1.212,1.212,0,0,1-1.359-1.359H163a1.641,1.641,0,0,0,1.585,1.811,5.564,5.564,0,0,0,2.83-.736c2.321-1.245,4.642-3.849,6.793-6.227l.962-1.076c3.057-3.4,5.491-4.529,6.114-4.529V33.6h0c-.906,0-3.4,1.245-6.51,4.7" transform="translate(-163 -33.6)"/>
    </clipPath>
    <linearGradient id="linear-gradient-8" x1="-115.299" y1="140.271" x2="-115.269" y2="140.271" gradientUnits="objectBoundingBox">
      <stop offset="0" stop-color="#5eb4e1"/>
      <stop offset="0.188" stop-color="#53acda"/>
      <stop offset="0.518" stop-color="#3595c7"/>
      <stop offset="0.95" stop-color="#0671a9"/>
      <stop offset="1" stop-color="#006ca5"/>
    </linearGradient>
    <clipPath id="clip-path-23">
      <path id="Path_31" data-name="Path 31" d="M190.991,34.053a.894.894,0,0,1,.849.962c0,.226-.17,1.076-2.491,3.4a32.952,32.952,0,0,0-3.849,5.151c.283-.113.566-.226.792-.34a32.225,32.225,0,0,1,3.4-4.415c1.7-1.7,2.6-3,2.6-3.736a1.366,1.366,0,0,0-1.359-1.472v.453Z" transform="translate(-185.5 -33.6)"/>
    </clipPath>
    <linearGradient id="linear-gradient-9" x1="-305.498" y1="571.055" x2="-305.442" y2="571.055" gradientUnits="objectBoundingBox">
      <stop offset="0" stop-color="#5eb4e1"/>
      <stop offset="0.163" stop-color="#4aa2d1"/>
      <stop offset="0.531" stop-color="#2280b1"/>
      <stop offset="0.822" stop-color="#096a9d"/>
      <stop offset="1" stop-color="#006296"/>
    </linearGradient>
    <clipPath id="clip-path-24">
      <path id="Path_32" data-name="Path 32" d="M86.289,54.645A1.19,1.19,0,0,0,87.7,55.777a5.138,5.138,0,0,0,2.491-1.528,2.011,2.011,0,0,0-.566-.113A4.786,4.786,0,0,1,87.7,55.325c-.566,0-.849-.226-.906-.679a3.079,3.079,0,0,1,.226-1.132c-.17-.057-.283-.057-.453-.113a2.019,2.019,0,0,0-.283,1.245" transform="translate(-86.275 -53.4)"/>
    </clipPath>
    <linearGradient id="linear-gradient-10" x1="-501.991" y1="2233.392" x2="-501.763" y2="2233.392" gradientUnits="objectBoundingBox">
      <stop offset="0" stop-color="#ad1e56"/>
      <stop offset="0.025" stop-color="#ae2158"/>
      <stop offset="0.45" stop-color="#c34774"/>
      <stop offset="0.79" stop-color="#d05f86"/>
      <stop offset="1" stop-color="#d5688c"/>
    </linearGradient>
    <clipPath id="clip-path-25">
      <path id="Path_33" data-name="Path 33" d="M74.011,50.026c-.226.34-.283.566-.226.736a.565.565,0,0,0,.283.226,3.3,3.3,0,0,0,1.868-.679c-.226-.057-.4-.113-.623-.17a2.338,2.338,0,0,1-1.019.4c0-.057.057-.113.113-.17a3.861,3.861,0,0,0,.283-.4,3.9,3.9,0,0,1-.453-.17c-.113.113-.17.226-.226.226" transform="translate(-73.764 -49.8)"/>
    </clipPath>
    <linearGradient id="linear-gradient-11" x1="-682.166" y1="4752.705" x2="-681.763" y2="4752.705" gradientUnits="objectBoundingBox">
      <stop offset="0" stop-color="#a41d50"/>
      <stop offset="0.114" stop-color="#a92356"/>
      <stop offset="1" stop-color="#d05280"/>
    </linearGradient>
    <clipPath id="clip-path-26">
      <path id="Path_35" data-name="Path 35" d="M28.509,85.561c0-2.151,7.755-8.151,8.661-8.151h.057v.057h0c0,1.076-2.208,4.359-4.472,6.68-1.472,1.472-2.661,2.321-3.4,2.321-.623-.057-.849-.34-.849-.906m8.6-8.661c-.623,0-3.057,1.755-4.925,3.4C30.6,81.655,28,84.089,28,85.561a1.208,1.208,0,0,0,1.3,1.359c1.076,0,2.6-1.359,3.736-2.434,2.208-2.264,4.642-5.717,4.642-7.019a.539.539,0,0,0-.113-.4.557.557,0,0,0-.453-.17h0" transform="translate(-28 -76.9)"/>
    </clipPath>
    <linearGradient id="linear-gradient-12" x1="-188.417" y1="357.153" x2="-188.37" y2="357.153" xlink:href="#linear-gradient-10"/>
    <clipPath id="clip-path-27">
      <path id="Path_37" data-name="Path 37" d="M48.5,48.936a1.776,1.776,0,0,0,1.755,2.038c1.981,0,5.378-2.661,8.887-5.944l-.509-.17c-3.057,2.83-6.51,5.6-8.378,5.6-.793,0-1.245-.566-1.245-1.528,0-.849,1.132-3.566,3.227-6.566-.17-.057-.283-.113-.453-.17-2.151,3.113-3.283,5.831-3.283,6.736" transform="translate(-48.5 -42.2)"/>
    </clipPath>
    <linearGradient id="linear-gradient-13" x1="-137.113" y1="280.733" x2="-137.067" y2="280.733" gradientUnits="objectBoundingBox">
      <stop offset="0" stop-color="#a41d50"/>
      <stop offset="0.428" stop-color="#be446f"/>
      <stop offset="0.786" stop-color="#cf5e84"/>
      <stop offset="1" stop-color="#d5688c"/>
    </linearGradient>
    <clipPath id="clip-path-28">
      <path id="Path_39" data-name="Path 39" d="M18.9,82.6h.453c.057-4.925,8.095-10.246,19.416-17.209l-.226-.4C27.051,72.019,18.9,77.4,18.9,82.6" transform="translate(-18.9 -65)"/>
    </clipPath>
    <linearGradient id="linear-gradient-14" x1="-45.375" y1="140.161" x2="-45.349" y2="140.161" gradientUnits="objectBoundingBox">
      <stop offset="0" stop-color="#d5688c"/>
      <stop offset="0.089" stop-color="#d16086"/>
      <stop offset="0.697" stop-color="#b73164"/>
      <stop offset="1" stop-color="#ad1e56"/>
    </linearGradient>
    <clipPath id="clip-path-29">
      <path id="Path_41" data-name="Path 41" d="M35.6,48.942c0,2.6,1.811,4.076,4.981,4.076v-.509c-1.7,0-4.529-.453-4.529-3.566,0-2.434,1.585-6.114,5.547-10.416-.17-.057-.283-.17-.453-.226C37.185,42.659,35.6,46.451,35.6,48.942" transform="translate(-35.6 -38.3)"/>
    </clipPath>
    <linearGradient id="linear-gradient-15" x1="-181.713" y1="344.58" x2="-181.668" y2="344.58" xlink:href="#linear-gradient-14"/>
    <clipPath id="clip-path-31">
      <path id="Path_44" data-name="Path 44" d="M79.587,60.625a2.251,2.251,0,0,1-2.434-1.981H76.7a2.748,2.748,0,0,0,2.944,2.434c3.906,0,6.68-2.83,8.944-5.264-.17-.057-.34-.057-.566-.113-2.208,2.321-4.868,4.925-8.434,4.925" transform="translate(-76.7 -55.7)"/>
    </clipPath>
    <linearGradient id="linear-gradient-16" x1="-183.125" y1="146.859" x2="-183.068" y2="146.859" gradientUnits="objectBoundingBox">
      <stop offset="0" stop-color="#a41d50"/>
      <stop offset="0.101" stop-color="#ab295a"/>
      <stop offset="0.506" stop-color="#c4577c"/>
      <stop offset="0.819" stop-color="#d37392"/>
      <stop offset="1" stop-color="#d97d9a"/>
    </linearGradient>
    <clipPath id="clip-path-32">
      <path id="Path_46" data-name="Path 46" d="M47.317,58.358l-.226.17-.566.4A6.381,6.381,0,0,0,44.6,60.679C32.372,79.869,24.391,80.831,22.919,80.831c-2.151,0-3.566-.4-3.566-2.264H18.9c0,2.774,2.717,2.774,4.019,2.774.906,0,3.34-.283,7.133-2.944,4.755-3.4,9.793-9.227,15-17.435a6.36,6.36,0,0,1,1.811-1.642l.566-.4.226-.17c2.944-2.151,3.793-2.6,4.076-2.6.226-.057.283,0,.283.057l.34-.34c-.17-.17-.283-.17-.623-.17-.509-.057-1.7.736-4.415,2.661" transform="translate(-18.9 -55.695)"/>
    </clipPath>
    <linearGradient id="linear-gradient-17" x1="-43.737" y1="128.925" x2="-43.72" y2="128.925" gradientUnits="objectBoundingBox">
      <stop offset="0" stop-color="#d5688c"/>
      <stop offset="0.23" stop-color="#c8547c"/>
      <stop offset="0.737" stop-color="#ae2c5c"/>
      <stop offset="1" stop-color="#a41d50"/>
    </linearGradient>
    <clipPath id="clip-path-33">
      <path id="Path_48" data-name="Path 48" d="M104.7,57.47c0,2.717,1.528,4.189,4.472,4.189a8.316,8.316,0,0,0,5.831-3c-.226,0-.4-.057-.623-.057a7.654,7.654,0,0,1-5.208,2.547c-2.717,0-4.019-1.189-4.019-3.679v-.057c-.17-.057-.34-.057-.453-.113v.17" transform="translate(-104.7 -57.3)"/>
    </clipPath>
    <linearGradient id="linear-gradient-18" x1="-292.927" y1="534.248" x2="-292.845" y2="534.248" xlink:href="#linear-gradient-16"/>
    <clipPath id="clip-path-34">
      <path id="Path_50" data-name="Path 50" d="M133.806,60c-.566.906-1.019,1.642-1.076,1.7a.843.843,0,0,1-.4.34h-4.868l.793-1.245a8.379,8.379,0,0,0,.453-.736h-.566a5.217,5.217,0,0,0-.283.453l-.793,1.245a.647.647,0,0,0-.17.4.208.208,0,0,0,.057.17c.057.113.17.226.509.226h4.868a.985.985,0,0,0,.792-.509c.057-.113.566-.849,1.3-1.981h0a2.778,2.778,0,0,0-.623-.057" transform="translate(-126.9 -60)"/>
    </clipPath>
    <linearGradient id="linear-gradient-19" x1="-205.231" y1="292.214" x2="-205.142" y2="292.214" xlink:href="#linear-gradient-13"/>
    <clipPath id="clip-path-35">
      <path id="Path_52" data-name="Path 52" d="M153,58.813h0a4.166,4.166,0,0,0,.906,2.944,2.514,2.514,0,0,0,1.925.792h0V62.04a2.13,2.13,0,0,1-1.585-.623,3.641,3.641,0,0,1-.736-2.717,1.653,1.653,0,0,1-.509.113" transform="translate(-153 -58.7)"/>
    </clipPath>
    <linearGradient id="linear-gradient-20" x1="-245.43" y1="103.949" x2="-245.295" y2="103.949" gradientUnits="objectBoundingBox">
      <stop offset="0" stop-color="#bc356e"/>
      <stop offset="0.393" stop-color="#bf3971"/>
      <stop offset="0.784" stop-color="#c84579"/>
      <stop offset="1" stop-color="#d04f80"/>
    </linearGradient>
    <clipPath id="clip-path-36">
      <path id="Path_54" data-name="Path 54" d="M77.166,56.07l-.17.17a.283.283,0,0,1,0,.34,2.545,2.545,0,0,1-.113.453,5.745,5.745,0,0,0-.283,1.642h.453a5.259,5.259,0,0,1,.283-1.528,4.591,4.591,0,0,1,.17-.623v-.113c0-.17,0-.4-.17-.509Z" transform="translate(-76.6 -55.9)"/>
    </clipPath>
    <linearGradient id="linear-gradient-21" x1="-373.856" y1="930.867" x2="-373.378" y2="930.867" gradientUnits="objectBoundingBox">
      <stop offset="0" stop-color="#d97d9a"/>
      <stop offset="0.408" stop-color="#c05077"/>
      <stop offset="0.795" stop-color="#ac2b5b"/>
      <stop offset="1" stop-color="#a41d50"/>
    </linearGradient>
    <clipPath id="clip-path-37">
      <path id="Path_56" data-name="Path 56" d="M156.193,68.7c-1.755,2.151-3.227,3.906-4.529,5.491-3.623,4.359-5.264,6.34-5.264,7.7a2.829,2.829,0,0,0,.509,1.642l.283-.4a2.153,2.153,0,0,1-.34-1.245c0-1.189,1.755-3.283,5.151-7.359,1.3-1.585,2.774-3.34,4.529-5.491,2.378-2.887,3.906-5.038,4.981-6.623L161,62.3c-1.019,1.528-2.547,3.623-4.812,6.4" transform="translate(-146.4 -62.3)"/>
    </clipPath>
    <linearGradient id="linear-gradient-22" x1="-58.484" y1="125.467" x2="-58.459" y2="125.467" xlink:href="#linear-gradient-21"/>
    <clipPath id="clip-path-38">
      <path id="Path_58" data-name="Path 58" d="M168.867,50.9c-1.245,1.925-1.981,3.4-3.453,6.057-1.7,3.057-3.623,6.51-6.114,10.642-5.944,9.85-8.944,11.321-10.189,11.321a2.033,2.033,0,0,1-1.528-.906l-.283.4a2.437,2.437,0,0,0,1.868.962c2.321,0,6-3.963,10.586-11.548,2.491-4.132,4.415-7.585,6.114-10.642,1.642-2.944,2.491-4.642,3.849-6.68h0a5.713,5.713,0,0,1-.849.4" transform="translate(-147.3 -50.5)"/>
    </clipPath>
    <linearGradient id="linear-gradient-23" x1="-47.858" y1="175.23" x2="-47.835" y2="175.23" xlink:href="#linear-gradient-21"/>
    <clipPath id="clip-path-39">
      <path id="Path_59" data-name="Path 59" d="M168.4,54.357c-.113.057-.17.057-.736.566-1.642,1.415-6,5.264-9.567,5.264V60.7c3.793,0,8.208-3.906,9.906-5.378a1.806,1.806,0,0,1,.4-.34,16.04,16.04,0,0,1-2.264,3.906l.509.113c2.038-3,2.264-3.963,2.264-4.132v-.113a.8.8,0,0,0-.113-.34.429.429,0,0,0-.226-.113.438.438,0,0,1-.17.057" transform="translate(-158.1 -54.3)"/>
    </clipPath>
    <linearGradient id="linear-gradient-24" x1="-218.638" y1="768.388" x2="-218.556" y2="768.388" gradientUnits="objectBoundingBox">
      <stop offset="0" stop-color="#bc356e"/>
      <stop offset="0.279" stop-color="#b52e65"/>
      <stop offset="1" stop-color="#a41d50"/>
    </linearGradient>
    <clipPath id="clip-path-40">
      <path id="Path_61" data-name="Path 61" d="M130.772,38.949a15.594,15.594,0,0,1-1.472,5.095c.17-.057.4-.057.566-.113a14.308,14.308,0,0,0,1.415-5.038c0-.226.057-.283.226-.283.34,0,1.245.113,1.811.17h.226a1.212,1.212,0,0,1,1.076,1.3,8.387,8.387,0,0,1-1.132,3.113c.17-.057.4-.057.623-.113a8.043,8.043,0,0,0,1.019-3A1.713,1.713,0,0,0,133.6,38.27h-.226c-.623-.057-1.528-.17-1.868-.17a.851.851,0,0,0-.736.849" transform="translate(-129.3 -38.1)"/>
    </clipPath>
    <linearGradient id="linear-gradient-25" x1="-272.451" y1="785.556" x2="-272.373" y2="785.556" gradientUnits="objectBoundingBox">
      <stop offset="0" stop-color="#6fa442"/>
      <stop offset="0.57" stop-color="#8bb144"/>
      <stop offset="1" stop-color="#a3bc46"/>
    </linearGradient>
    <clipPath id="clip-path-41">
      <path id="Path_63" data-name="Path 63" d="M110.253,21.438a1.443,1.443,0,0,1,1.585-1.528c4.812,0,7.3,7.019,7.3,7.472,0,.057,0,.113-.283.113-1.642,0-8.6-2.717-8.6-6.057m-.453,0c0,3.793,7.189,6.566,9.114,6.566.623,0,.736-.4.736-.623,0-.453-2.491-7.982-7.812-7.982a1.9,1.9,0,0,0-2.038,2.038" transform="translate(-109.8 -19.4)"/>
    </clipPath>
    <linearGradient id="linear-gradient-26" x1="-19.181" y1="419.065" x2="-19.123" y2="419.065" xlink:href="#linear-gradient-25"/>
    <clipPath id="clip-path-42">
      <path id="Path_65" data-name="Path 65" d="M102.4,49.374a4.285,4.285,0,0,1,.849.057,2,2,0,0,1,.962-.226c.283,0,.283.113.283.17v.113H105v-.113c0-.17-.057-.679-.792-.679a2.693,2.693,0,0,0-1.811.679" transform="translate(-102.4 -48.687)"/>
    </clipPath>
    <linearGradient id="linear-gradient-27" x1="-700.406" y1="3513.744" x2="-700.129" y2="3513.744" gradientUnits="objectBoundingBox">
      <stop offset="0" stop-color="#6fa442"/>
      <stop offset="0.309" stop-color="#7ba943"/>
      <stop offset="0.865" stop-color="#9ab845"/>
      <stop offset="1" stop-color="#a3bc46"/>
    </linearGradient>
    <clipPath id="clip-path-43">
      <path id="Path_67" data-name="Path 67" d="M119.763,37.47a.639.639,0,0,0-.17.623,2.368,2.368,0,0,0,.453.679c.113.17.4.4.4.509,0,.17-.4.792-1.528,1.472a13.739,13.739,0,0,0-3.113,3.679,1.926,1.926,0,0,0,.566-.057,16.116,16.116,0,0,1,2.774-3.227c1.132-.679,1.811-1.415,1.755-1.868a1.144,1.144,0,0,0-.509-.793c-.17-.17-.34-.34-.34-.453v-.17c.057-.057.283-.113.679,0l.453.113c.906.226,1.189.34,1.189.736a16.822,16.822,0,0,1-1.925,5.321c.17,0,.4-.057.566-.057a15.613,15.613,0,0,0,1.811-5.264c0-.849-.736-1.019-1.585-1.245l-.453-.113a1.95,1.95,0,0,0-.509-.057,1.074,1.074,0,0,0-.509.17" transform="translate(-115.8 -37.3)"/>
    </clipPath>
    <linearGradient id="linear-gradient-28" x1="-170.925" y1="703.201" x2="-170.855" y2="703.201" xlink:href="#linear-gradient-25"/>
    <clipPath id="clip-path-44">
      <path id="Path_69" data-name="Path 69" d="M73.232,35.481l-.906.906c-.793.793-1.925,1.981-3.227,3.227l.509.17,3.057-3.057.849-.906a6.792,6.792,0,0,1,3.906-1.811c.453,0,.793.226.793.34h.453c0-.509-.623-.849-1.3-.849a8.188,8.188,0,0,0-4.132,1.981" transform="translate(-69.1 -33.5)"/>
    </clipPath>
    <linearGradient id="linear-gradient-29" x1="-255.698" y1="203.988" x2="-255.627" y2="203.988" gradientUnits="objectBoundingBox">
      <stop offset="0" stop-color="#6fa442"/>
      <stop offset="0.256" stop-color="#76a743"/>
      <stop offset="0.618" stop-color="#88b044"/>
      <stop offset="1" stop-color="#a3bc46"/>
    </linearGradient>
    <clipPath id="clip-path-45">
      <path id="Path_70" data-name="Path 70" d="M81.8,35.1a4.1,4.1,0,0,1-.906,1.189l-.17.226c-.509.566-2.264,3-3.623,4.925h0c.17.057.34.057.509.113h0c1.359-1.868,3.057-4.189,3.51-4.7l.17-.226c.679-.793,1.019-1.189,1.019-1.528Z" transform="translate(-77.1 -35.1)"/>
    </clipPath>
    <linearGradient id="linear-gradient-30" x1="-402.945" y1="807.193" x2="-402.774" y2="807.193" gradientUnits="objectBoundingBox">
      <stop offset="0" stop-color="#639240"/>
      <stop offset="0.093" stop-color="#639240"/>
      <stop offset="0.804" stop-color="#6fa342"/>
      <stop offset="0.83" stop-color="#6fa442"/>
      <stop offset="1" stop-color="#6fa442"/>
    </linearGradient>
    <clipPath id="clip-path-46">
      <path id="Path_72" data-name="Path 72" d="M86.988,13.313c-.962,1.7-2.6,4.7-2.661,4.812v.057h-.17a21.973,21.973,0,0,0-3.453-.34,18.579,18.579,0,0,0-8.6,2.717l.226.453a18.514,18.514,0,0,1,8.434-2.661,21.348,21.348,0,0,1,3.4.34h.453a.442.442,0,0,0,.226-.226c.113-.17,2.661-4.755,2.774-4.981a.616.616,0,0,0,.057-.283Z" transform="translate(-72.1 -13.2)"/>
    </clipPath>
    <linearGradient id="linear-gradient-31" x1="72.561" y1="205.643" x2="72.604" y2="205.643" gradientUnits="objectBoundingBox">
      <stop offset="0" stop-color="#6a9e42"/>
      <stop offset="0.301" stop-color="#6da042"/>
      <stop offset="0.524" stop-color="#76a543"/>
      <stop offset="0.723" stop-color="#87ad44"/>
      <stop offset="0.907" stop-color="#9db946"/>
      <stop offset="0.946" stop-color="#a3bc46"/>
      <stop offset="1" stop-color="#a3bc46"/>
    </linearGradient>
    <clipPath id="clip-path-47">
      <path id="Path_73" data-name="Path 73" d="M59.07,30.676A26.409,26.409,0,0,0,55.9,34.3h0c.17.057.283.113.453.17h0a24.005,24.005,0,0,1,3.057-3.4,26.976,26.976,0,0,1,5.321-3.963l-.283-.509a28.078,28.078,0,0,0-5.378,4.076" transform="translate(-55.9 -26.6)"/>
    </clipPath>
    <linearGradient id="linear-gradient-32" x1="-257.648" y1="627.106" x2="-257.553" y2="627.106" gradientUnits="objectBoundingBox">
      <stop offset="0" stop-color="#639240"/>
      <stop offset="0.038" stop-color="#639240"/>
      <stop offset="0.04" stop-color="#639240"/>
      <stop offset="0.198" stop-color="#659541"/>
      <stop offset="0.831" stop-color="#6a9e42"/>
      <stop offset="1" stop-color="#6a9e42"/>
    </linearGradient>
    <clipPath id="clip-path-48">
      <path id="Path_74" data-name="Path 74" d="M80.6,41.024h0c.17.057.4.057.566.113h0c6.453-6.34,9.17-7.585,11.548-7.585a2.225,2.225,0,0,1,2.151,1.076,3.439,3.439,0,0,1,.4,1.811,7.313,7.313,0,0,1-.283,1.925,2.872,2.872,0,0,0-.113.509.909.909,0,0,0,.283.623l.283-.4a.294.294,0,0,1-.113-.226,2.307,2.307,0,0,1,.113-.4,7.5,7.5,0,0,0,.34-2.038,4.311,4.311,0,0,0-.34-1.811A2.721,2.721,0,0,0,92.714,33.1c-2.547-.057-5.378,1.3-12.114,7.925" transform="translate(-80.6 -33.097)"/>
    </clipPath>
    <linearGradient id="linear-gradient-33" x1="-156.888" y1="589.979" x2="-156.829" y2="589.979" gradientUnits="objectBoundingBox">
      <stop offset="0" stop-color="#a3bc46"/>
      <stop offset="0.339" stop-color="#a0ba46"/>
      <stop offset="0.561" stop-color="#98b545"/>
      <stop offset="0.748" stop-color="#89ad44"/>
      <stop offset="0.915" stop-color="#74a142"/>
      <stop offset="1" stop-color="#669941"/>
    </linearGradient>
    <clipPath id="clip-path-49">
      <path id="Path_76" data-name="Path 76" d="M112.087,35.7c-.4.679-3.057,4.076-5.434,4.529a.208.208,0,0,1-.17-.057l-.283.4a.956.956,0,0,0,.566.17c2.774-.509,5.887-4.642,5.887-5.038Z" transform="translate(-106.2 -35.7)"/>
    </clipPath>
    <linearGradient id="linear-gradient-34" x1="-145.686" y1="415.66" x2="-145.608" y2="415.66" gradientUnits="objectBoundingBox">
      <stop offset="0" stop-color="#669941"/>
      <stop offset="0.011" stop-color="#669941"/>
      <stop offset="0.062" stop-color="#6f9d40"/>
      <stop offset="0.219" stop-color="#86a73f"/>
      <stop offset="0.368" stop-color="#93ad3e"/>
      <stop offset="0.5" stop-color="#98af3e"/>
      <stop offset="0.648" stop-color="#94ae3e"/>
      <stop offset="0.795" stop-color="#88a93f"/>
      <stop offset="0.941" stop-color="#74a241"/>
      <stop offset="1" stop-color="#6a9e42"/>
    </linearGradient>
    <clipPath id="clip-path-50">
      <path id="Path_78" data-name="Path 78" d="M144.625,35.721a5.554,5.554,0,0,1-1.076.906,3.68,3.68,0,0,1-.509-.962,4.346,4.346,0,0,0-.566-1.019c-.679-.906-1.585-1.132-4.132-1.132a14.845,14.845,0,0,0-1.642.057v.509c.453,0,.962-.057,1.585-.057,2.434,0,3.17.226,3.736.962a6.46,6.46,0,0,1,.509.906c.34.679.566,1.245.962,1.245.226,0,.566-.283,1.415-1.076.906-.849,2.264-2.151,3-2.151.509,0,.566.113.566.453a2.388,2.388,0,0,1-.34.849,6.56,6.56,0,0,0-.906,3.113l.509-.17a6.671,6.671,0,0,1,.849-2.717,2.29,2.29,0,0,0,.4-1.076,1.017,1.017,0,0,0-.17-.623.993.993,0,0,0-.849-.34c-.962,0-2.264,1.3-3.34,2.321" transform="translate(-136.7 -33.4)"/>
    </clipPath>
    <linearGradient id="linear-gradient-35" x1="-178.952" y1="337.449" x2="-178.892" y2="337.449" gradientUnits="objectBoundingBox">
      <stop offset="0" stop-color="#669941"/>
      <stop offset="0.083" stop-color="#72a042"/>
      <stop offset="0.235" stop-color="#93b345"/>
      <stop offset="0.299" stop-color="#a3bc46"/>
      <stop offset="0.665" stop-color="#6a9b41"/>
      <stop offset="0.794" stop-color="#7da643"/>
      <stop offset="1" stop-color="#a3bc46"/>
    </linearGradient>
    <clipPath id="clip-path-51">
      <path id="Path_79" data-name="Path 79" d="M130.7,33.17c.283.679.736.736,1.755.736h.283l1.415-.057h0V33.4l-1.415.057c-1.245,0-1.415-.057-1.528-.453Z" transform="translate(-130.7 -33)"/>
    </clipPath>
    <linearGradient id="linear-gradient-36" x1="-552.083" y1="5796.36" x2="-551.825" y2="5796.36" gradientUnits="objectBoundingBox">
      <stop offset="0" stop-color="#6fa442"/>
      <stop offset="0.26" stop-color="#76a743"/>
      <stop offset="0.647" stop-color="#8bb144"/>
      <stop offset="1" stop-color="#a3bc46"/>
    </linearGradient>
    <clipPath id="clip-path-53">
      <path id="Path_82" data-name="Path 82" d="M95.91,39.1c-.849,0-3.51,2.094-5.547,4.3l-.283.283a9.854,9.854,0,0,0-.679.792,1.926,1.926,0,0,0,.566.057c.17-.17.283-.34.453-.509s.34-.4.509-.566c2.038-2.151,4.359-3.849,4.925-3.849.283,0,.453.057.509.226v.057c0,.566-.736,1.076-1.415,1.528l-.509.34h0c-.849.623-1.245.906-1.245,1.472v.226a.893.893,0,0,0,.283.453.573.573,0,0,1,.226.4h.566a1.146,1.146,0,0,0-.4-.736l-.17-.17c-.057-.4.057-.509,1.019-1.245h0l.509-.34c.793-.509,1.7-1.132,1.642-2.038,0-.34-.283-.679-.962-.679h0" transform="translate(-89.4 -39.1)"/>
    </clipPath>
    <linearGradient id="linear-gradient-37" x1="-247.79" y1="472.224" x2="-247.72" y2="472.224" gradientUnits="objectBoundingBox">
      <stop offset="0" stop-color="#669941"/>
      <stop offset="0.318" stop-color="#91b144"/>
      <stop offset="0.495" stop-color="#a3bc46"/>
      <stop offset="1" stop-color="#a3bc46"/>
    </linearGradient>
    <clipPath id="clip-path-54">
      <path id="Path_84" data-name="Path 84" d="M96.926,48.3v.17a1.233,1.233,0,0,1-.226.566c.17,0,.34.057.509.057a1.957,1.957,0,0,0,.17-.679v-.057h-.453Z" transform="translate(-96.7 -48.3)"/>
    </clipPath>
    <linearGradient id="linear-gradient-38" x1="-2317.416" y1="4244.068" x2="-2316.759" y2="4244.068" xlink:href="#linear-gradient-25"/>
    <clipPath id="clip-path-55">
      <path id="Path_86" data-name="Path 86" d="M102.683,16.673A4.322,4.322,0,0,0,102.4,18.2c0,2.094,1.019,6.057,7.982,8.378h.113l.509-.057a.419.419,0,0,0-.4-.4h-.057c-6.623-2.264-7.642-5.944-7.642-7.925a4.223,4.223,0,0,1,.226-1.359c.679-1.585,2.434-1.755,3.34-1.755,7.3,0,10.982,7.7,11.944,10.076l.057.113.453-.17-.057-.057c-.962-2.434-4.812-10.359-12.4-10.359-1.925-.113-3.283.679-3.793,1.981" transform="translate(-102.4 -14.681)"/>
    </clipPath>
    <linearGradient id="linear-gradient-39" x1="-59.799" y1="72.277" x2="-59.767" y2="72.277" gradientUnits="objectBoundingBox">
      <stop offset="0" stop-color="#6fa442"/>
      <stop offset="0.314" stop-color="#84ae49"/>
      <stop offset="0.813" stop-color="#acc258"/>
      <stop offset="1" stop-color="#acc258"/>
    </linearGradient>
  </defs>
  <g id="Group_3" data-name="Group 3" transform="translate(0.283 14.888)">
    <g id="Group_2" data-name="Group 2" clip-path="url(#clip-path)">
      <rect id="Rectangle_15" data-name="Rectangle 15" width="94.421" height="35.379" transform="translate(0 -0.057)" fill="url(#radial-gradient)"/>
    </g>
  </g>
  <g id="Group_5" data-name="Group 5" transform="translate(15.284 6.566)">
    <g id="Group_4" data-name="Group 4" transform="translate(0 0)" clip-path="url(#clip-path-2)">
      <rect id="Rectangle_16" data-name="Rectangle 16" width="88.477" height="20.435" transform="translate(0 0.057)" fill="url(#radial-gradient-2)"/>
    </g>
  </g>
  <g id="Group_7" data-name="Group 7" transform="translate(16.076 0.226)">
    <g id="Group_6" data-name="Group 6" clip-path="url(#clip-path-3)">
      <rect id="Rectangle_17" data-name="Rectangle 17" width="62.607" height="21.171" transform="translate(0.057 0)" fill="url(#radial-gradient-3)"/>
    </g>
  </g>
  <g id="Group_9" data-name="Group 9" transform="translate(0)">
    <g id="Group_8" data-name="Group 8" clip-path="url(#clip-path-4)">
      <path id="Path_4" data-name="Path 4" d="M78.242,47.623A8.25,8.25,0,0,1,76.6,48.868c.226.057.4.113.623.17a14.862,14.862,0,0,0,1.359-1.076l.849-.849c-.17-.057-.4-.057-.566-.113a6.457,6.457,0,0,1-.623.623" transform="translate(-43.938 -27.357)" fill="#5db4e0"/>
    </g>
  </g>
  <g id="Group_11" data-name="Group 11" transform="translate(67.985 21.681)">
    <g id="Group_10" data-name="Group 10" clip-path="url(#clip-path-5)">
      <path id="Path_5" data-name="Path 5" d="M140.683,42.8l7.812,6.623-6.283,7.585-7.812-6.68Z" transform="translate(-137.004 -47.215)" fill="url(#linear-gradient)"/>
    </g>
  </g>
  <g id="Group_13" data-name="Group 13" transform="translate(53.833 20.888)">
    <g id="Group_12" data-name="Group 12" clip-path="url(#clip-path-6)">
      <path id="Path_7" data-name="Path 7" d="M117.08,54.233l-6.68-4.019,3.623-6.114,6.68,4.019Z" transform="translate(-112.438 -46.987)" fill="url(#linear-gradient-2)"/>
    </g>
  </g>
  <g id="Group_19" data-name="Group 19" transform="translate(0)">
    <g id="Group_14" data-name="Group 14" clip-path="url(#clip-path-4)">
      <path id="Path_9" data-name="Path 9" d="M86.7,51.3c.17.057.34.057.453.113a10.114,10.114,0,0,1,1.7-2.661,1.926,1.926,0,0,0-.566-.057A7.865,7.865,0,0,0,86.7,51.3" transform="translate(-48.32 -28.095)" fill="#0077b6"/>
    </g>
    <g id="Group_15" data-name="Group 15" clip-path="url(#clip-path-4)">
      <path id="Path_10" data-name="Path 10" d="M66.4,45.728l.509.17c.509-.509,1.076-1.019,1.585-1.528l-.509-.17A13.4,13.4,0,0,1,66.4,45.728" transform="translate(-39.512 -26.142)" fill="#5db4e0"/>
    </g>
    <g id="Group_16" data-name="Group 16" clip-path="url(#clip-path-4)">
      <path id="Path_11" data-name="Path 11" d="M94.761,49.5a8.038,8.038,0,0,1-.906,1.245,12.339,12.339,0,0,1-1.755,1.7,2.492,2.492,0,0,0,.566.113,19.407,19.407,0,0,0,1.528-1.528,8.521,8.521,0,0,0,1.076-1.472,1.567,1.567,0,0,0-.509-.057" transform="translate(-50.664 -28.442)" fill="#5db4e0"/>
    </g>
    <g id="Group_17" data-name="Group 17" clip-path="url(#clip-path-4)">
      <path id="Path_12" data-name="Path 12" d="M97.223,52.461a6.786,6.786,0,0,1-.623.679c.17.057.4.057.566.113.113-.17.283-.283.4-.453a14.484,14.484,0,0,1,3.17-2.944,4.285,4.285,0,0,1-.849-.057,29.383,29.383,0,0,0-2.661,2.661" transform="translate(-52.616 -28.572)" fill="#3b80bc"/>
    </g>
    <g id="Group_18" data-name="Group 18" clip-path="url(#clip-path-4)">
      <path id="Path_13" data-name="Path 13" d="M54.3,41.289c.17.057.283.113.453.17.283-.4.566-.792.906-1.189l-.509-.17L54.3,41.289" transform="translate(-34.261 -24.363)" fill="#006ca5"/>
    </g>
  </g>
  <g id="Group_21" data-name="Group 21" transform="translate(81.514 13.925)">
    <g id="Group_20" data-name="Group 20" transform="translate(0 0)" clip-path="url(#clip-path-12)">
      <rect id="Rectangle_24" data-name="Rectangle 24" width="9.85" height="9.284" transform="translate(0 0)" fill="url(#linear-gradient-3)"/>
    </g>
  </g>
  <g id="Group_23" data-name="Group 23" transform="translate(77.156 16.473)">
    <g id="Group_22" data-name="Group 22" clip-path="url(#clip-path-13)">
      <path id="Path_15" data-name="Path 15" d="M160.1,44.532l-5.095.679-.509-4.189,5.038-.623Z" transform="translate(-154.896 -40.966)" fill="url(#linear-gradient-4)"/>
    </g>
  </g>
  <g id="Group_25" data-name="Group 25" transform="translate(81.684 12.114)">
    <g id="Group_24" data-name="Group 24" transform="translate(0 0)" clip-path="url(#clip-path-14)">
      <path id="Path_17" data-name="Path 17" d="M162.953,32.3l10.076.849-.509,5.6L162.5,37.9Z" transform="translate(-162.896 -33.092)" fill="url(#linear-gradient-5)"/>
    </g>
  </g>
  <g id="Group_27" data-name="Group 27" transform="translate(83.269 15.283)">
    <g id="Group_26" data-name="Group 26" clip-path="url(#clip-path-15)">
      <path id="Path_19" data-name="Path 19" d="M166.146,44.58,161.9,39.2l5.321-4.3,4.246,5.378Z" transform="translate(-164.221 -37.39)" fill="url(#linear-gradient-6)"/>
    </g>
  </g>
  <g id="Group_29" data-name="Group 29" transform="translate(99.006 6.397)">
    <g id="Group_28" data-name="Group 28" transform="translate(0 0)" clip-path="url(#clip-path-16)">
      <path id="Path_21" data-name="Path 21" d="M193.161,20.4l6.114,2.6-2.6,6.4-6.17-2.6Z" transform="translate(-192.368 -22.211)" fill="url(#linear-gradient-7)"/>
    </g>
  </g>
  <g id="Group_35" data-name="Group 35" transform="translate(0)">
    <g id="Group_30" data-name="Group 30" clip-path="url(#clip-path-4)">
      <path id="Path_23" data-name="Path 23" d="M129.1,54.359h.566A78.664,78.664,0,0,0,134.025,47c-.226.057-.4.057-.623.113a76.61,76.61,0,0,1-4.3,7.246" transform="translate(-66.719 -27.357)" fill="#76bce3"/>
    </g>
    <g id="Group_31" data-name="Group 31" clip-path="url(#clip-path-4)">
      <path id="Path_24" data-name="Path 24" d="M45.5,37.692a1.7,1.7,0,0,1,.453.226l.849-.849-.509-.17a10.459,10.459,0,0,1-.792.792" transform="translate(-30.443 -22.975)" fill="#5db4e0"/>
    </g>
    <g id="Group_32" data-name="Group 32" clip-path="url(#clip-path-4)">
      <path id="Path_25" data-name="Path 25" d="M76.015,46.3c-.623.849-1.132,1.528-1.415,1.925a3.9,3.9,0,0,1,.453.17c.34-.453.849-1.189,1.415-1.981-.113-.057-.283-.057-.453-.113" transform="translate(-43.07 -27.054)" fill="#0070ab"/>
    </g>
    <g id="Group_33" data-name="Group 33" clip-path="url(#clip-path-4)">
      <path id="Path_26" data-name="Path 26" d="M105.323,50.553a19.993,19.993,0,0,0-.623,3.623c.17.057.34.057.453.113a20.474,20.474,0,0,1,.566-3.566c.057-.34.113-.509.113-.623h-.509c.113.057.057.283,0,.453" transform="translate(-56.131 -28.703)" fill="#5db4e0"/>
    </g>
    <g id="Group_34" data-name="Group 34" clip-path="url(#clip-path-4)">
      <path id="Path_27" data-name="Path 27" d="M126.089,48.557a22.163,22.163,0,0,1-1.642,3,19.047,19.047,0,0,1-2.547,3.227c.226,0,.4.057.623.057a22.631,22.631,0,0,0,4.132-6.34c-.226,0-.4.057-.566.057" transform="translate(-63.595 -28.008)" fill="#3b80bc"/>
    </g>
  </g>
  <g id="Group_37" data-name="Group 37" transform="translate(81.571 12.057)">
    <g id="Group_36" data-name="Group 36" transform="translate(0 0)" clip-path="url(#clip-path-22)">
      <path id="Path_28" data-name="Path 28" d="M182.466,37.375l-19.36,11.1L153.2,30.638,172.56,19.6Z" transform="translate(-158.747 -27.525)" fill="url(#linear-gradient-8)"/>
    </g>
  </g>
  <g id="Group_39" data-name="Group 39" transform="translate(94.307 12.057)">
    <g id="Group_38" data-name="Group 38" clip-path="url(#clip-path-23)">
      <path id="Path_30" data-name="Path 30" d="M186.684,27.9l6.623,10.133-9.227,6.227L177.4,34.183Z" transform="translate(-181.985 -31.127)" fill="url(#linear-gradient-9)"/>
    </g>
  </g>
  <g id="Group_41" data-name="Group 41" transform="translate(38.139 23.266)">
    <g id="Group_40" data-name="Group 40" clip-path="url(#clip-path-24)">
      <rect id="Rectangle_30" data-name="Rectangle 30" width="3.906" height="2.434" transform="translate(-0.042 -0.057)" fill="url(#linear-gradient-10)"/>
    </g>
  </g>
  <g id="Group_43" data-name="Group 43" transform="translate(31.057 21.228)">
    <g id="Group_42" data-name="Group 42" clip-path="url(#clip-path-25)">
      <rect id="Rectangle_31" data-name="Rectangle 31" width="2.208" height="1.302" transform="translate(-0.036 -0.057)" fill="url(#linear-gradient-11)"/>
    </g>
  </g>
  <g id="Group_45" data-name="Group 45" transform="translate(5.151 36.568)">
    <g id="Group_44" data-name="Group 44" clip-path="url(#clip-path-26)">
      <path id="Path_34" data-name="Path 34" d="M31.008,68.8l7.755,11.378L27.612,87.99,19.8,76.612Z" transform="translate(-24.442 -73.385)" fill="url(#linear-gradient-12)"/>
    </g>
  </g>
  <g id="Group_47" data-name="Group 47" transform="translate(16.756 16.926)">
    <g id="Group_46" data-name="Group 46" clip-path="url(#clip-path-27)">
      <path id="Path_36" data-name="Path 36" d="M49.251,33,60.12,41.491l-8.095,10.7L41.1,43.755Z" transform="translate(-45.289 -38.208)" fill="url(#linear-gradient-13)"/>
    </g>
  </g>
  <g id="Group_49" data-name="Group 49" transform="translate(0 29.832)">
    <g id="Group_48" data-name="Group 48" clip-path="url(#clip-path-28)">
      <path id="Path_38" data-name="Path 38" d="M5.3,62.886,27.547,49.3l13.02,21.794L18.32,84.679Z" transform="translate(-12.999 -58.187)" fill="url(#linear-gradient-14)"/>
    </g>
  </g>
  <g id="Group_51" data-name="Group 51" transform="translate(9.453 14.718)">
    <g id="Group_50" data-name="Group 50" clip-path="url(#clip-path-29)">
      <path id="Path_40" data-name="Path 40" d="M34.312,33.2l9,12.567L32.444,53.692,23.5,41.125Z" transform="translate(-30.349 -36.087)" fill="url(#linear-gradient-15)"/>
    </g>
  </g>
  <g id="Group_53" data-name="Group 53" transform="translate(0)">
    <g id="Group_52" data-name="Group 52" clip-path="url(#clip-path-4)">
      <path id="Path_42" data-name="Path 42" d="M49.834,63.14c1.076-.679,2.321-2.321,2.151-3a.455.455,0,0,0-.509-.34,3.353,3.353,0,0,0-1.245.509A11.75,11.75,0,0,1,44.4,61.838v.509a12.3,12.3,0,0,0,6.057-1.585,4.275,4.275,0,0,1,1.019-.453.055.055,0,0,1,.057.057,4.752,4.752,0,0,1-1.981,2.377" transform="translate(-29.965 -32.912)" fill="#616060"/>
    </g>
  </g>
  <g id="Group_55" data-name="Group 55" transform="translate(32.719 24.568)">
    <g id="Group_54" data-name="Group 54" clip-path="url(#clip-path-31)">
      <path id="Path_43" data-name="Path 43" d="M85.2,62.082l-12-5.095L76.879,48.1l12,5.095Z" transform="translate(-75.181 -52.402)" fill="url(#linear-gradient-16)"/>
    </g>
  </g>
  <g id="Group_57" data-name="Group 57" transform="translate(0 24.565)">
    <g id="Group_56" data-name="Group 56" clip-path="url(#clip-path-32)">
      <path id="Path_45" data-name="Path 45" d="M18.511,30.4,54.8,50.665,36.285,84.63,0,64.364Z" transform="translate(-10.699 -44.719)" fill="url(#linear-gradient-17)"/>
    </g>
  </g>
  <g id="Group_59" data-name="Group 59" transform="translate(48.569 25.473)">
    <g id="Group_58" data-name="Group 58" clip-path="url(#clip-path-33)">
      <path id="Path_47" data-name="Path 47" d="M114.786,61.787,104.2,60.995l.34-5.095,10.642.792Z" transform="translate(-104.483 -56.693)" fill="url(#linear-gradient-18)"/>
    </g>
  </g>
  <g id="Group_61" data-name="Group 61" transform="translate(61.136 27.002)">
    <g id="Group_60" data-name="Group 60" clip-path="url(#clip-path-34)">
      <path id="Path_49" data-name="Path 49" d="M129.172,63.419,124.7,58.212l5.491-4.812,4.472,5.151Z" transform="translate(-125.945 -57.136)" fill="url(#linear-gradient-19)"/>
    </g>
  </g>
  <g id="Group_63" data-name="Group 63" transform="translate(75.91 26.266)">
    <g id="Group_62" data-name="Group 62" clip-path="url(#clip-path-35)">
      <path id="Path_51" data-name="Path 51" d="M152.983,62.88,149.7,59.54l3.283-3.34,3.34,3.34Z" transform="translate(-151.568 -57.615)" fill="url(#linear-gradient-20)"/>
    </g>
  </g>
  <g id="Group_65" data-name="Group 65" transform="translate(32.662 24.681)">
    <g id="Group_64" data-name="Group 64" clip-path="url(#clip-path-36)">
      <path id="Path_53" data-name="Path 53" d="M76.209,58.813,75.7,55.926l1.359-.226.509,2.887Z" transform="translate(-76.209 -55.813)" fill="url(#linear-gradient-21)"/>
    </g>
  </g>
  <g id="Group_67" data-name="Group 67" transform="translate(72.174 28.304)">
    <g id="Group_66" data-name="Group 66" transform="translate(0 0)" clip-path="url(#clip-path-37)">
      <path id="Path_55" data-name="Path 55" d="M128.2,69.379,144.446,49l19.473,15.907L147.673,85.285Z" transform="translate(-138.503 -56.529)" fill="url(#linear-gradient-22)"/>
    </g>
  </g>
  <g id="Group_69" data-name="Group 69" transform="translate(72.684 21.624)">
    <g id="Group_68" data-name="Group 68" clip-path="url(#clip-path-38)">
      <path id="Path_57" data-name="Path 57" d="M142.908,38.1l28.813,10.133L160.513,81.008,131.7,70.876Z" transform="translate(-140.531 -45.119)" fill="url(#linear-gradient-23)"/>
    </g>
  </g>
  <g id="Group_71" data-name="Group 71" transform="translate(78.797 23.775)">
    <g id="Group_70" data-name="Group 70" clip-path="url(#clip-path-39)">
      <rect id="Rectangle_33" data-name="Rectangle 33" width="10.812" height="6.283" transform="translate(-0.057 0.057)" fill="url(#linear-gradient-24)"/>
    </g>
  </g>
  <g id="Group_73" data-name="Group 73" transform="translate(62.494 14.605)">
    <g id="Group_72" data-name="Group 72" transform="translate(0)" clip-path="url(#clip-path-40)">
      <path id="Path_60" data-name="Path 60" d="M129.338,33.2l6.453,5.095-5.038,6.51L124.3,39.71Z" transform="translate(-127.13 -35.974)" fill="url(#linear-gradient-25)"/>
    </g>
  </g>
  <g id="Group_75" data-name="Group 75" transform="translate(51.456 4.019)">
    <g id="Group_74" data-name="Group 74" clip-path="url(#clip-path-41)">
      <path id="Path_62" data-name="Path 62" d="M104.9,18l11.435-4.3,3.906,10.812-11.378,4.246Z" transform="translate(-107.674 -16.927)" fill="url(#linear-gradient-26)"/>
    </g>
  </g>
  <g id="Group_77" data-name="Group 77" transform="translate(47.267 20.598)">
    <g id="Group_76" data-name="Group 76" clip-path="url(#clip-path-42)">
      <path id="Path_64" data-name="Path 64" d="M102.706,46.7l2.321,1.245-.906,1.7L101.8,48.4Z" transform="translate(-102.14 -47.825)" fill="url(#linear-gradient-27)"/>
    </g>
  </g>
  <g id="Group_79" data-name="Group 79" transform="translate(54.852 14.152)">
    <g id="Group_78" data-name="Group 78" clip-path="url(#clip-path-43)">
      <path id="Path_66" data-name="Path 66" d="M115.046,32.1l8.548,4.359-4.246,8.6-8.548-4.3Z" transform="translate(-113.63 -35.044)" fill="url(#linear-gradient-28)"/>
    </g>
  </g>
  <g id="Group_81" data-name="Group 81" transform="translate(28.417 12.001)">
    <g id="Group_80" data-name="Group 80" transform="translate(0 0)" clip-path="url(#clip-path-44)">
      <path id="Path_68" data-name="Path 68" d="M77.186,40.312,66.6,37.651,68.638,29.5l10.529,2.661Z" transform="translate(-68.015 -31.764)" fill="url(#linear-gradient-29)"/>
    </g>
  </g>
  <g id="Group_83" data-name="Group 83" transform="translate(32.945 12.906)">
    <g id="Group_82" data-name="Group 82" transform="translate(0 0)" clip-path="url(#clip-path-45)">
      <rect id="Rectangle_34" data-name="Rectangle 34" width="5.208" height="6.453" fill="url(#linear-gradient-30)"/>
    </g>
  </g>
  <g id="Group_85" data-name="Group 85" transform="translate(30.115 0.509)">
    <g id="Group_84" data-name="Group 84" clip-path="url(#clip-path-46)">
      <path id="Path_71" data-name="Path 71" d="M67,15.24,72.208,2.9,88.114,9.863,82.907,22.2Z" transform="translate(-69.887 -8.731)" fill="url(#linear-gradient-31)"/>
    </g>
  </g>
  <g id="Group_87" data-name="Group 87" transform="translate(20.945 8.095)">
    <g id="Group_86" data-name="Group 86" transform="translate(0 0)" clip-path="url(#clip-path-47)">
      <rect id="Rectangle_35" data-name="Rectangle 35" width="8.831" height="7.812" transform="translate(-0.057)" fill="url(#linear-gradient-32)"/>
    </g>
  </g>
  <g id="Group_89" data-name="Group 89" transform="translate(34.927 11.773)">
    <g id="Group_88" data-name="Group 88" transform="translate(0 0)" clip-path="url(#clip-path-48)">
      <rect id="Rectangle_36" data-name="Rectangle 36" width="15.171" height="8.038" transform="translate(0 -0.055)" fill="url(#linear-gradient-33)"/>
    </g>
  </g>
  <g id="Group_91" data-name="Group 91" transform="translate(49.418 13.246)">
    <g id="Group_90" data-name="Group 90" clip-path="url(#clip-path-49)">
      <path id="Path_75" data-name="Path 75" d="M101.8,35.434,107.914,30l5.321,6.057-6.114,5.434Z" transform="translate(-104.291 -33.227)" fill="url(#linear-gradient-34)"/>
    </g>
  </g>
  <g id="Group_93" data-name="Group 93" transform="translate(66.683 11.944)">
    <g id="Group_92" data-name="Group 92" transform="translate(0 0)" clip-path="url(#clip-path-50)">
      <path id="Path_77" data-name="Path 77" d="M146.867,39.131,134.3,35.282l2.434-7.982L149.3,31.206Z" transform="translate(-135.659 -30.753)" fill="url(#linear-gradient-35)"/>
    </g>
  </g>
  <g id="Group_95" data-name="Group 95" transform="translate(63.287 11.718)">
    <g id="Group_94" data-name="Group 94" transform="translate(0)" clip-path="url(#clip-path-51)">
      <rect id="Rectangle_37" data-name="Rectangle 37" width="3.453" height="0.962" fill="url(#linear-gradient-36)"/>
    </g>
  </g>
  <g id="Group_97" data-name="Group 97" transform="translate(0)">
    <g id="Group_96" data-name="Group 96" clip-path="url(#clip-path-4)">
      <path id="Path_80" data-name="Path 80" d="M76.519,12.653a.442.442,0,0,0-.226-.226,5.9,5.9,0,0,0-1.585-.226c-3.736,0-12.454,1.811-21.567,8.491a49.689,49.689,0,0,0-6.34,5.434l.509.17a55.72,55.72,0,0,1,6.114-5.208c9-6.623,17.6-8.378,21.284-8.378a5.361,5.361,0,0,1,1.245.113Z" transform="translate(-31.007 -12.257)" fill="#a5bb45"/>
    </g>
  </g>
  <g id="Group_99" data-name="Group 99" transform="translate(39.908 15.171)">
    <g id="Group_98" data-name="Group 98" clip-path="url(#clip-path-53)">
      <path id="Path_81" data-name="Path 81" d="M92.259,32.7l5.321,7.132-7.359,5.6L84.9,38.3Z" transform="translate(-87.447 -36.323)" fill="url(#linear-gradient-37)"/>
    </g>
  </g>
  <g id="Group_101" data-name="Group 101" transform="translate(44.04 20.379)">
    <g id="Group_100" data-name="Group 100" clip-path="url(#clip-path-54)">
      <path id="Path_83" data-name="Path 83" d="M96.993,47.7l.566.793-.792.623-.566-.849Z" transform="translate(-96.483 -48.04)" fill="url(#linear-gradient-38)"/>
    </g>
  </g>
  <g id="Group_103" data-name="Group 103" transform="translate(47.267 1.348)">
    <g id="Group_102" data-name="Group 102" transform="translate(0 0)" clip-path="url(#clip-path-55)">
      <path id="Path_85" data-name="Path 85" d="M104.723,28.473,92.1,13.189,107.61,0l12.623,15.284Z" transform="translate(-97.931 -8.311)" fill="url(#linear-gradient-39)"/>
    </g>
  </g>
</svg>
